<?xml version="1.0" standalone="no"?>
<!DOCTYPE svg PUBLIC "-//W3C//DTD SVG 20010904//EN"
 "http://www.w3.org/TR/2001/REC-SVG-20010904/DTD/svg10.dtd">
<svg version="1.0" xmlns="http://www.w3.org/2000/svg"
 width="480.000000pt" height="480.000000pt" viewBox="0 0 480.000000 480.000000"
 preserveAspectRatio="xMidYMid meet">
<metadata>
Created by potrace 1.14, written by Peter Selinger 2001-2017
</metadata>
<g transform="translate(0.000000,480.000000) scale(0.100000,-0.100000)"
fill="#000000" stroke="none">
<path d="M1456 4065 c-511 -179 -931 -327 -934 -330 -5 -4 284 -2415 293
-2441 2 -6 357 -203 790 -439 l788 -427 31 15 c54 26 1551 848 1557 855 12 13
303 2442 293 2451 -9 8 -1874 642 -1884 641 -3 -1 -423 -147 -934 -325z m1589
-1260 c349 -754 638 -1378 641 -1388 5 -16 -8 -17 -211 -15 l-217 3 -137 295
-137 295 -583 0 -583 0 -137 -295 -137 -295 -222 -3 -221 -2 52 112 c29 62
320 690 647 1395 327 705 598 1279 602 1275 4 -4 293 -624 643 -1377z"/>
<path d="M2205 2829 c-104 -225 -191 -414 -193 -420 -2 -5 146 -9 387 -9 215
0 391 3 391 7 0 13 -383 833 -389 833 -3 0 -91 -185 -196 -411z"/>
</g>
</svg>
